<svg version="1.0"
        xmlns="http://www.w3.org/2000/svg" width="40" height="40" viewBox="0 0 534 534" preserveAspectRatio="xMidYMid meet">
        <g transform="translate(0,534) scale(0.1,-0.1)" stroke="none" x="200">
                <path d="M2378 5086 c-154 -63 -399 -305 -533 -526 l-36 -60 -97 90 c-354 328
    -619 452 -769 360 -81 -49 -164 -287 -198 -570 -17 -136 -19 -416 -5 -561 26
    -264 93 -558 190 -843 53 -156 105 -336 98 -340 -2 -1 -36 -15 -77 -31 -139
    -55 -310 -166 -403 -262 l-38 -39 248 -124 c240 -122 247 -126 250 -157 4 -43
    -29 -77 -66 -68 -14 3 -136 60 -271 126 l-245 119 -23 -27 c-26 -32 -146 -263
    -140 -270 3 -2 156 -30 341 -63 184 -32 340 -62 346 -65 38 -23 27 -100 -15
    -111 -17 -4 -583 87 -692 111 -19 4 -23 -1 -33 -48 -20 -90 -28 -247 -19 -362
    5 -60 13 -113 17 -117 5 -5 168 46 362 112 194 66 366 120 381 120 15 0 35 -7
    43 -16 21 -21 20 -67 -1 -86 -10 -8 -182 -71 -383 -138 -201 -68 -366 -124
    -368 -125 -6 -5 64 -155 100 -214 154 -255 412 -448 695 -520 160 -41 212 -42
    1683 -39 1552 4 1441 0 1631 63 312 104 578 356 697 660 l20 51 -337 114
    c-414 140 -419 142 -427 175 -9 38 19 75 57 75 17 0 189 -54 381 -120 193 -66
    353 -119 355 -117 11 12 23 128 23 232 0 96 -21 291 -33 301 -1 1 -153 -25
    -337 -57 -184 -32 -344 -59 -356 -59 -46 0 -72 71 -38 104 19 20 0 16 354 76
    162 28 305 53 317 55 l23 5 -26 58 c-27 63 -95 184 -123 220 l-17 24 -253
    -126 c-139 -69 -258 -126 -265 -126 -24 0 -66 41 -66 64 0 12 10 32 23 43 12
    12 125 71 251 132 l230 111 -30 31 c-48 52 -184 153 -272 204 l-83 48 8 46
    c16 91 7 201 -21 283 l-27 78 35 152 c80 347 106 549 113 878 8 393 -27 643
    -117 836 -53 114 -76 129 -200 129 -87 0 -101 -3 -163 -33 -102 -50 -258 -158
    -382 -264 -112 -96 -293 -278 -355 -356 -34 -43 -35 -43 -85 -37 -102 14 -279
    65 -361 105 -102 49 -189 130 -226 210 -31 65 -60 176 -82 315 -22 134 -33
    164 -63 176 -35 13 -51 11 -115 -15z m-1133 -506 c53 -25 197 -145 338 -281
    l108 -104 -12 -60 c-14 -69 -17 -258 -6 -326 l8 -46 -58 -12 c-88 -20 -259
    -87 -334 -131 -37 -22 -92 -63 -123 -90 l-55 -51 -15 24 c-22 33 -52 154 -66
    270 -17 129 -8 480 14 602 24 132 34 161 62 195 31 37 77 40 139 10z m2902
    -40 c21 0 73 -52 88 -87 67 -159 66 -580 -1 -945 -12 -68 -23 -98 -40 -115
    -40 -40 -65 -31 -161 57 l-88 81 -1 112 c-1 128 -12 182 -61 286 -40 84 -130
    181 -205 221 -27 14 -48 30 -48 35 0 14 170 180 244 239 102 81 200 130 241
    121 11 -3 25 -5 32 -5z m-2024 -1505 c328 -85 489 -438 341 -744 -33 -68 -148
    -185 -220 -223 -144 -77 -344 -77 -488 0 -78 41 -187 155 -223 232 -142 301
    19 648 340 735 69 18 179 19 250 0z m1329 4 c260 -53 449 -321 409 -579 -42
    -266 -252 -450 -515 -450 -250 0 -459 170 -511 415 -18 87 -18 122 0 208 60
    283 335 464 617 406z m-615 -1626 c29 -18 84 -43 124 -56 l71 -23 -63 -58
    c-35 -31 -93 -71 -129 -89 -60 -30 -72 -32 -170 -32 -99 0 -109 2 -167 32 -70
    37 -183 127 -183 147 0 7 24 20 54 29 73 23 165 86 226 155 27 31 50 60 50 64
    0 5 30 -24 68 -63 37 -40 90 -87 119 -106z M1909 2757 c-101 -38 -144 -107 -144 -232 1 -97 26 -153 93 -200 42
    -28 49 -30 142 -30 93 0 100 2 142 30 67 47 92 103 93 200 0 67 -4 89 -26 130
    -37 72 -96 107 -192 112 -45 2 -86 -2 -108 -10z M3252 2757 c-95 -35 -141 -110 -142 -228 0 -154 82 -239 231 -239
    110 0 181 41 220 125 21 46 25 148 8 209 -14 50 -82 118 -135 134 -51 15 -138
    14 -182 -1z"/>
        </g>
</svg>
