<svg version="1.0"
        xmlns="http://www.w3.org/2000/svg" width="40" height="40" viewBox="0 0 534 534" preserveAspectRatio="xMidYMid meet">
        <g transform="translate(0,534) scale(0.1,-0.1)" stroke="none" x="200">
                <path d="M2254 4946 c-64 -28 -132 -117 -149 -193 -7 -37 9 -98 34 -127 9 -10
59 -47 111 -81 112 -73 181 -144 218 -223 25 -52 27 -68 28 -182 1 -199 26
-225 214 -218 128 4 188 28 215 85 21 43 17 136 -13 293 -35 189 -90 289 -238
430 -92 87 -217 187 -270 215 -36 18 -108 19 -150 1z M3679 3010 c-9 -5 -37 -56 -62 -112 -25 -57 -88 -201 -141 -320 -53
-120 -96 -224 -96 -232 0 -32 28 -40 98 -28 37 7 105 16 152 22 194 23 579 78
589 84 6 4 11 16 11 26 0 26 -504 571 -527 570 -4 0 -15 -5 -24 -10z M1764 2983 c-22 -16 -480 -539 -487 -555 -7 -19 16 -48 38 -48 12 0
312 -32 655 -71 58 -6 114 -10 124 -8 46 10 41 27 -98 324 -177 379 -166 360
-196 363 -14 1 -30 -1 -36 -5z M5112 2514 c-61 -16 -178 -61 -272 -106 -112 -52 -304 -159 -317
-176 -31 -39 2 -102 53 -102 15 0 52 15 83 34 113 68 358 186 451 216 98 32
120 48 120 85 0 52 -42 70 -118 49z M2443 2440 c-49 -20 -31 -52 123 -214 80 -85 152 -157 160 -160 27
-10 79 -7 96 7 37 27 248 310 248 331 0 45 -8 46 -314 45 -160 0 -301 -4 -313
-9z M286 2359 c-28 -22 -34 -55 -13 -83 8 -11 60 -30 142 -51 129 -33
288 -92 438 -162 73 -34 81 -36 104 -23 15 8 31 22 36 31 15 23 0 66 -28 85
-38 25 -296 130 -361 148 -162 43 -286 76 -289 76 -1 0 -14 -9 -29 -21z M4940 2045 c-69 -7 -150 -18 -180 -24 -30 -6 -92 -17 -138 -25 -104
-18 -132 -35 -132 -80 0 -59 47 -79 130 -56 32 8 195 36 355 60 47 7 190 17
282 20 20 0 45 47 38 69 -14 45 -31 51 -133 50 -53 -1 -153 -7 -222 -14z M365 1913 c-113 -13 -218 -37 -240 -55 -30 -24 -32 -61 -5 -88 24
-24 30 -24 115 -5 155 36 340 36 636 -1 50 -6 59 -4 78 15 11 11 21 32 21 46
0 23 -30 65 -47 65 -5 0 -53 7 -108 15 -90 13 -368 18 -450 8z M2667 1823 c-3 -5 -12 -35 -22 -68 -37 -128 -89 -197 -169 -220 -96
-29 -228 -13 -279 33 -11 9 -43 47 -73 83 -71 89 -131 111 -178 63 -23 -22
-21 -113 5 -232 27 -123 116 -420 135 -449 20 -32 43 -29 134 17 44 22 90 40
102 40 13 0 70 -29 127 -65 58 -36 111 -65 118 -65 24 0 49 18 125 85 51 46
81 65 100 65 15 0 29 -4 33 -9 13 -23 158 -131 174 -131 10 0 67 31 126 70 59
38 115 70 124 70 9 0 50 -20 91 -45 81 -48 114 -55 129 -27 13 25 77 308 101
445 34 204 24 267 -43 267 -43 0 -66 -18 -133 -101 -67 -84 -112 -115 -187
-131 -115 -24 -223 21 -276 114 -26 45 -37 78 -57 176 -4 21 -9 22 -104 22
-54 0 -101 -3 -103 -7z M4478 1693 c-23 -25 -23 -75 0 -96 10 -10 32 -17 49 -17 74 0 408
-43 508 -65 131 -30 137 -30 158 -7 22 24 21 65 -1 86 -42 37 -356 97 -587
111 -101 7 -111 6 -127 -12z M805 1560 c-90 -10 -316 -55 -378 -76 -55 -18 -82 -51 -73 -89 11
-44 45 -51 128 -27 92 27 208 47 368 63 106 11 128 17 148 36 26 26 28 50 6
81 -17 24 -59 27 -199 12z"/>
        </g>
</svg>
