<svg version="1.0"
    xmlns="http://www.w3.org/2000/svg" width="40" height="40" viewBox="0 0 534 534" preserveAspectRatio="xMidYMid meet">
    <g transform="translate(0,534) scale(0.1,-0.1)" stroke="none" x="200">
        <path d="M2174 5158 c-22 -10 -44 -47 -44 -73 0 -7 19 -37 43 -66 135 -167
191 -265 222 -392 29 -119 20 -295 -22 -422 -43 -134 -102 -223 -247 -375
-179 -188 -290 -335 -379 -500 -91 -170 -144 -340 -154 -493 l-6 -89 -24 38
c-32 54 -61 151 -80 269 -11 77 -14 162 -11 364 l3 264 -27 20 c-38 29 -70 16
-146 -56 -306 -293 -512 -713 -577 -1177 -21 -151 -22 -431 -1 -569 89 -589
399 -1091 861 -1394 435 -284 1058 -405 1563 -301 659 135 1209 600 1395 1180
64 199 94 462 77 674 -23 280 -93 489 -238 706 -87 129 -122 164 -163 164 -47
0 -54 -7 -94 -88 -70 -145 -162 -212 -291 -212 -59 0 -81 5 -125 28 -47 24
-58 36 -89 96 -35 69 -35 70 -34 195 1 92 9 164 29 266 56 290 59 314 59 515
0 261 -31 424 -119 629 -190 446 -567 712 -1110 785 -158 21 -247 26 -271 14z"/>
    </g>
</svg>
