<svg version="1.0"
    xmlns="http://www.w3.org/2000/svg" width="40" height="40" viewBox="0 0 534 534" preserveAspectRatio="xMidYMid meet">
    <g transform="translate(0,534) scale(0.1,-0.1)" stroke="none" x="200">
        <path d="M1400 5014 c-219 -26 -304 -47 -439 -110 -408 -191 -723 -589 -829
-1049 -49 -212 -54 -483 -13 -701 54 -290 234 -666 486 -1014 311 -430 751
-898 1265 -1345 155 -135 457 -378 390 -314 -25 23 -145 137 -268 252 -559
527 -1055 1103 -1341 1555 -297 471 -411 817 -397 1202 8 243 51 413 156 625
159 320 455 580 759 664 183 51 513 54 693 8 290 -76 540 -270 678 -527 33
-61 50 -83 77 -95 62 -30 119 -2 159 78 67 131 190 276 314 366 199 146 410
211 690 211 242 0 361 -23 527 -101 139 -65 240 -136 353 -249 188 -187 315
-423 382 -709 29 -126 36 -410 14 -568 -54 -373 -321 -879 -743 -1405 -341
-425 -679 -778 -1283 -1337 -19 -18 33 21 115 87 848 677 1549 1454 1859 2062
185 362 255 675 226 1010 -26 292 -111 539 -265 770 -119 178 -248 308 -420
422 -218 145 -394 199 -692 214 -304 16 -573 -50 -809 -197 -98 -61 -264 -213
-334 -306 l-47 -62 -63 80 c-187 237 -450 398 -753 460 -99 20 -358 34 -447
23z M1485 4584 c-172 -16 -332 -61 -468 -132 -395 -207 -603 -632 -558
-1139 33 -372 138 -651 382 -1008 280 -410 758 -908 1334 -1390 164 -137 412
-333 466 -368 l26 -18 142 109 c354 272 670 550 991 872 440 439 710 787 880
1135 103 210 153 380 181 620 18 152 6 396 -25 520 -76 304 -241 523 -500 661
-249 133 -557 173 -833 109 -315 -73 -615 -335 -795 -694 -43 -85 -48 -91 -57
-70 -119 315 -314 545 -566 672 -166 83 -431 136 -600 121z"/>
    </g>
</svg>
