<svg version="1.0"
    xmlns="http://www.w3.org/2000/svg" width="40" height="40" viewBox="0 0 534 534" preserveAspectRatio="xMidYMid meet">
    <g transform="translate(0,534) scale(0.1,-0.1)" stroke="none" x="200">
        <path d="M2584 5194 c-18 -9 -42 -26 -54 -39 -12 -13 -149 -313 -304 -667
-156 -353 -292 -661 -304 -684 -11 -22 -38 -56 -58 -74 -77 -67 -64 -65 -838
-135 -457 -41 -727 -69 -748 -78 -68 -29 -108 -94 -108 -172 0 -88 1 -89 565
-562 291 -244 545 -462 563 -485 33 -42 62 -121 62 -171 0 -15 -70 -357 -156
-759 -127 -593 -155 -739 -149 -775 13 -87 115 -162 205 -150 25 3 92 35 178
85 75 44 357 209 626 366 268 157 505 290 525 296 48 13 120 13 162 -1 19 -7
315 -176 659 -378 l625 -365 61 -1 c50 0 68 5 102 28 50 32 82 91 82 148 0 23
-67 358 -150 744 -163 765 -167 792 -126 880 30 64 29 63 614 554 270 227 501
424 512 438 64 82 37 215 -56 269 -38 23 -80 27 -762 89 -648 58 -726 67 -769
87 -104 49 -101 44 -421 774 -181 413 -304 680 -320 698 -15 16 -41 35 -59 42
-43 18 -120 17 -159 -2z M1023 4507 c-122 -122 -133 -136 -133 -169 0 -24 8 -46 23 -62 12
-14 156 -111 320 -215 258 -166 303 -191 337 -191 69 0 107 62 77 124 -29 60
-378 621 -394 634 -9 6 -35 12 -57 12 -38 0 -47 -6 -173 -133z M4073 4618 c-12 -13 -105 -159 -207 -325 -156 -255 -186 -309 -186
-341 0 -51 32 -82 84 -82 32 0 85 30 351 200 172 111 316 208 319 216 3 9 6
32 6 52 0 34 -10 48 -133 170 -126 126 -134 132 -173 132 -29 0 -46 -6 -61
-22z M560 2051 c-180 -4 -272 -10 -286 -18 -12 -7 -27 -26 -34 -43 -11
-28 -8 -49 33 -206 25 -97 53 -185 63 -195 9 -10 31 -21 49 -25 29 -5 74 16
351 161 176 92 325 172 333 178 38 32 32 111 -12 142 -23 16 1 16 -497 6z M4285 2048 c-11 -6 -26 -18 -32 -26 -19 -23 -16 -86 5 -110 23 -26
628 -342 669 -349 26 -4 37 0 61 23 23 24 36 58 70 190 23 88 42 172 42 186 0
46 -34 76 -93 82 -115 12 -702 15 -722 4z M2645 960 c-12 -4 -26 -14 -33 -22 -19 -23 -173 -724 -166 -753 3
-14 18 -34 31 -45 24 -18 41 -20 210 -20 113 0 192 4 205 11 11 6 26 26 34 44
13 32 9 53 -71 382 -47 191 -90 358 -96 369 -19 37 -70 52 -114 34z"/>
    </g>
</svg>
